<svg id="vector" xmlns="http://www.w3.org/2000/svg" width="0" height="0" viewBox="0 0 710 256"><path fill="#381316" d="M29.81,12.15H679.32C693.53,12.15 705.14,23.79 705.14,37.96V202.15C705.14,216.36 693.5,227.96 679.32,227.96C659.22,227.96 644.29,223.88 624.56,220.7C552.48,209.06 458.03,201.99 354.59,201.99C251.48,201.99 157.26,209.02 85.29,220.59C65.38,223.8 50.11,227.96 29.85,227.96C15.64,227.96 4.03,216.32 4.03,202.15V37.96C4.03,23.75 15.68,12.15 29.85,12.15H29.81Z" fill-rule="evenodd" id="path_0"/><path fill="#381316" d="M29.81,8.26H679.32C687.49,8.26 694.93,11.58 700.3,16.99C705.67,22.35 709.03,29.8 709.03,37.96V202.15C709.03,210.31 705.7,217.75 700.3,223.12C694.93,228.49 687.49,231.85 679.32,231.85C664.17,231.85 651.92,229.58 638.43,227.09C633.82,226.22 629.02,225.35 623.91,224.52C587.37,218.62 544.96,213.9 498.47,210.69C453.76,207.59 405.27,205.89 354.55,205.89C303.98,205.89 255.64,207.59 211.04,210.65C164.66,213.86 122.37,218.55 85.86,224.41C80.65,225.24 75.77,226.15 71.05,227.01C57.48,229.51 45.04,231.81 29.81,231.81C21.65,231.81 14.2,228.49 8.83,223.08C3.47,217.68 0.1,210.23 0.1,202.11V37.92C0.1,29.76 3.43,22.31 8.83,16.95C14.2,11.58 21.65,8.22 29.81,8.22V8.26ZM679.32,16.04H29.81C23.76,16.04 18.28,18.5 14.31,22.5C10.35,26.47 7.85,31.95 7.85,38V202.18C7.85,208.23 10.31,213.71 14.28,217.68C18.25,221.65 23.73,224.14 29.77,224.14C44.44,224.14 56.46,221.91 69.61,219.49C74.41,218.62 79.36,217.68 84.61,216.85C121.43,210.91 163.98,206.19 210.51,202.98C255.37,199.88 303.9,198.18 354.55,198.18C405.31,198.18 454.02,199.88 499,203.01C545.64,206.23 588.27,210.99 625.16,216.96C630.3,217.79 635.14,218.7 639.83,219.57C652.87,221.99 664.73,224.18 679.32,224.18C685.37,224.18 690.85,221.72 694.82,217.72C698.79,213.75 701.28,208.27 701.28,202.22V38.04C701.28,32.03 698.83,26.51 694.82,22.54C690.85,18.57 685.37,16.08 679.32,16.08V16.04Z" id="path_1"/><path fill="#931111" d="M29.81,4.63H679.32C693.53,4.63 705.14,16.27 705.14,30.44V194.62C705.14,208.84 693.5,220.44 679.32,220.44C659.22,220.44 644.29,216.36 624.56,213.18C552.48,201.54 458.03,194.47 354.59,194.47C251.48,194.47 157.26,201.5 85.29,213.07C65.38,216.28 50.11,220.44 29.85,220.44C15.64,220.44 4.03,208.8 4.03,194.62V30.44C4.03,16.23 15.68,4.63 29.85,4.63H29.81Z" fill-rule="evenodd" id="path_2"/><path fill="#FF151C" d="M29.81,0.77H679.32C687.49,0.77 694.93,4.1 700.3,9.5C705.67,14.87 709.03,22.31 709.03,30.48V194.66C709.03,202.82 705.7,210.27 700.3,215.64C694.93,221.01 687.49,224.37 679.32,224.37C664.17,224.37 651.92,222.1 638.43,219.61C633.82,218.74 629.02,217.87 623.91,217.04C587.37,211.14 544.96,206.42 498.47,203.2C453.76,200.1 405.27,198.4 354.55,198.4C303.98,198.4 255.64,200.1 211.04,203.16C164.66,206.38 122.37,211.06 85.86,216.92C80.65,217.75 75.77,218.66 71.05,219.53C57.48,222.02 45.04,224.33 29.81,224.33C21.65,224.33 14.2,221.01 8.83,215.6C3.47,210.2 0.1,202.75 0.1,194.62V30.44C0.1,22.28 3.43,14.83 8.83,9.46C14.2,4.1 21.65,0.73 29.81,0.73V0.77ZM679.32,8.56H29.81C23.76,8.56 18.28,11.01 14.31,15.02C10.35,18.99 7.85,24.47 7.85,30.52V194.7C7.85,200.75 10.31,206.23 14.28,210.2C18.25,214.16 23.73,216.66 29.77,216.66C44.44,216.66 56.46,214.43 69.61,212.01C74.41,211.14 79.36,210.2 84.61,209.36C121.43,203.43 163.98,198.71 210.51,195.49C255.37,192.39 303.9,190.69 354.55,190.69C405.31,190.69 454.02,192.39 499,195.53C545.64,198.74 588.27,203.51 625.16,209.48C630.3,210.31 635.14,211.22 639.83,212.09C652.87,214.5 664.73,216.7 679.32,216.7C685.37,216.7 690.85,214.24 694.82,210.23C698.79,206.26 701.28,200.78 701.28,194.74V30.55C701.28,24.54 698.83,19.03 694.82,15.06C690.85,11.09 685.37,8.6 679.32,8.6V8.56Z" id="path_3"/><path fill="#FEFEFE" d="M625.8,155.35V60.45C625.8,51.49 624.71,41.74 623.16,32.9H675.85V51.08C664.47,49.04 654.15,48.43 642.66,48.43V100.06C651.32,100.02 660.99,98.77 669.53,97.19V118.2C660.92,116.76 651.39,115.63 642.66,115.56V169.57C654.87,173.23 664.51,171.46 675.85,169.49V190.88L623.16,182.79C624.75,173.95 625.8,164.2 625.8,155.24V155.35Z" id="path_4"/><path fill="#FEFEFE" d="M587.14,179.24C569.45,179.24 559.06,165.14 559.06,148.36V126.59H577.73C576.82,129.8 576.22,132.11 575.91,135.47V148.32C575.91,152.6 577.01,156.34 579.16,159.51C581.17,162.46 583.78,163.86 587.37,163.86C590.66,163.86 593.11,162.65 594.85,159.85C598.36,154.26 598.03,143.37 597.04,137.1C594.66,121.72 577.54,102.93 568.17,88.12C562.76,80.18 558.87,70.96 558.87,61.21C558.87,43.22 569.3,30.14 587.52,30.14C599.99,30.14 608.8,37.77 612.39,49.6C613.56,53.46 614.13,57.77 614.13,62.53V77.38H595.46C596.36,74.17 596.97,71.86 597.27,68.5V62.53C597.27,55.42 595.42,45.86 586.57,45.86C577.96,45.86 575.69,54.06 575.69,61.21C575.69,67.59 578.41,73.07 581.89,78.86C592.21,95.64 610.65,116.46 613.6,134.6C616.89,154.71 611.82,179.24 587.14,179.24Z" id="path_5"/><path fill="#FEFEFE" d="M518.88,173.01C510.49,173.01 503.58,169.64 498.28,163.14C492.54,156.11 490.42,147.49 490.42,138.54V60.45C490.42,56.52 490.08,52.51 489.78,48.58C489.33,43.25 488.68,38.15 487.78,32.9H509.92C508.98,38.04 508.3,42.99 507.81,48.24C507.43,52.25 507.09,56.41 507.09,60.45V138.72C507.09,144.73 508.3,149.38 510.68,152.63C512.8,155.51 515.44,157.24 519.11,157.24C522.66,157.24 525.31,155.73 527.27,152.82C529.92,148.89 530.52,143.37 530.52,138.72V60.45C530.52,56.44 530.22,52.4 529.88,48.39C529.46,43.18 528.9,38.08 528.14,32.9H550.33C549.12,38.08 548.44,42.61 547.98,47.94C547.64,52.1 547.34,56.29 547.34,60.45V138.54C547.34,148.48 544.73,156.68 539.48,163.14C534.19,169.64 527.23,173.01 518.88,173.01Z" id="path_6"/><path fill="#FEFEFE" d="M450.25,169.23C442.08,169.23 434.83,165.63 429.65,159.4C423.94,152.52 421.6,143.56 421.6,134.76V64.34C421.6,47.07 430.86,29.91 450.25,29.91C469.79,29.91 478.7,47.03 478.7,64.34V134.76C478.7,143.71 476.59,152.29 470.84,159.36C465.55,165.86 458.64,169.23 450.25,169.23ZM438.42,134.04C438.42,138.95 439.1,144.51 441.89,148.7C443.97,151.84 446.65,153.5 450.43,153.5C453.87,153.5 456.6,151.95 458.6,148.82C461.28,144.62 461.89,138.88 461.89,134.04V64.19C461.89,59.47 461.24,54.03 458.52,50.02C456.52,47.03 453.87,45.48 450.25,45.48C446.58,45.48 443.93,47.07 441.86,50.06C439.1,54.03 438.42,59.47 438.42,64.19V134.04Z" id="path_7"/><path fill="#FEFEFE" d="M390.42,155.88C391.17,149.68 391.78,142.88 391.78,136.65V106.79H368.53V136.57C368.53,142.81 369.21,149.84 370.08,156C370.5,158.79 371.07,161.4 371.71,164.12H349.22C349.71,161.33 350.16,158.6 350.5,155.81C351.26,149.61 351.86,142.81 351.86,136.57V60.45C351.86,54.21 351.26,47.41 350.5,41.21C350.16,38.42 349.71,35.69 349.22,32.9H371.71C371.07,35.62 370.5,38.23 370.08,41.02C369.21,47.18 368.53,54.21 368.53,60.45V91.25H391.78V60.45C391.78,54.21 391.17,47.41 390.42,41.21C390.08,38.42 389.62,35.69 389.13,32.9H411.62C410.98,35.62 410.41,38.19 410.03,40.95C409.16,47.15 408.63,54.18 408.63,60.41V136.61C408.63,142.84 409.31,150.48 410.14,156.68C410.52,159.44 411.09,162.04 411.73,164.76L389.13,164.16C389.62,161.4 390.08,158.68 390.42,155.85V155.88Z" id="path_8"/><path fill="#FEFEFE" d="M276.31,137.25V48.47C267.43,48.51 257.83,49.57 249.1,51.11V32.94H320.42V51.11C311.65,49.57 302.09,48.51 293.21,48.47V137.25C293.21,146.36 294.15,155.92 296.19,164.8L273.63,165.48C275.14,156.71 276.39,146.17 276.39,137.25H276.31Z" id="path_9"/><path fill="#FEFEFE" d="M198.38,146.74L218.37,32.94H234.17L254.28,144.09C255.56,151.5 257.75,158.68 259.91,165.86L237.61,167.18C238.44,160.46 238.67,154.56 238.18,147.76C238.06,146.25 237.53,141.71 237.35,140.2L215.42,142.16C215.27,143.68 215.01,147.61 214.89,149.12C214.4,156.04 214.63,161.74 215.46,168.54L193.31,170.06C195.51,162.84 197.09,154.26 198.34,146.77L198.38,146.74ZM235.61,128.07L226.31,74.17L217.96,129.58L235.57,128.07H235.61Z" id="path_10"/><path fill="#FEFEFE" d="M135.3,148.55V60.49C135.3,51.53 134.2,41.78 132.65,32.94H185.34V51.11C173.96,49.07 163.64,48.47 152.15,48.47V94.47C160.81,94.43 170.49,93.18 179.03,91.59V112.61C170.41,111.17 160.88,110.04 152.15,109.96V158.42C163.72,158.42 175.51,154.45 185.34,150.33V170.28L132.65,176.03C134.24,167.18 135.3,157.43 135.3,148.48V148.55Z" id="path_11"/><path fill="#FEFEFE" d="M69.91,182.83L52.37,90.84V160.15C52.37,169.04 53.62,178.94 55.25,187.71L32.91,191.52C34.5,182.68 35.56,172.93 35.56,163.97V60.45C35.56,51.49 34.46,41.74 32.91,32.9H54.19L78.38,136.08L102.23,32.9H123.32C121.69,42.01 120.48,51.19 120.48,60.45V150.1C120.48,158.95 121.77,168.85 123.32,177.65L100.83,180.3C102.87,171.46 103.81,161.85 103.81,152.75V90.84L86.28,179.24L87.68,182.07L68.51,185.67L69.91,182.83Z" id="path_12"/><path fill="#931111" d="M224.84,239.22C227.29,240.24 229.22,241.83 229.67,244.44C229.9,245.57 230.24,247.95 228.88,250.15C227.56,252.3 224.65,254.3 218.41,254.76C214.48,255.1 211.53,254.04 209.49,252.49C207.41,250.94 206.32,248.86 206.16,247.2V246.48L213.04,245.91L213.16,247.16L212.93,247.39C212.93,247.39 212.55,247.95 213.84,249.27C214.4,249.8 215.05,250.18 215.8,250.45C216.52,250.71 217.31,250.79 218.11,250.75C219.88,250.6 221.24,250.07 222.11,249.35C222.91,248.67 223.32,247.76 223.25,246.82C223.21,246.21 222.87,245.31 221.66,244.51C220.75,243.95 219.35,243.46 217.28,243.23C214.33,242.89 211.68,242.55 209.64,241.64C207.45,240.66 206.01,239.07 205.79,236.24C205.79,236.12 204.61,228.34 216.67,227.32C220.83,226.98 223.66,228 225.51,229.36C227.44,230.79 228.27,232.65 228.39,233.85L228.43,234.54L221.51,235.1L221.43,233.97L221.66,233.74C221.66,233.74 221.96,233.25 220.6,232.15C220.26,231.89 219.77,231.7 219.16,231.55C218.52,231.4 217.8,231.32 216.97,231.36H216.67C215.84,231.44 214.67,231.7 213.68,232.27C212.82,232.76 212.13,233.48 212.13,234.38V234.57C212.21,235.59 212.7,236.24 213.5,236.61C214.37,237.07 215.61,237.29 217.05,237.45C219.62,237.71 222.49,238.13 224.84,239.11V239.22ZM247.29,225.05C251.67,224.78 255.11,225.88 257.53,228.04C260.14,230.3 261.57,233.74 261.8,237.9C262.06,242.06 261.08,245.46 259.08,247.91C257.04,250.45 253.94,252 250.01,252.41C249.36,252.45 248.53,252.56 247.89,252.56C243.88,252.56 240.6,251.43 238.29,249.2C235.98,247.01 234.62,243.79 234.36,239.64V239.6C234.09,235.59 235.04,232.12 237.16,229.55C239.31,226.98 242.64,225.35 247.17,225.05H247.21H247.29ZM243.35,246.63C244.38,248.03 246.08,248.63 248.72,248.48C251.44,248.29 253.03,247.54 253.86,246.02C254.73,244.4 254.88,241.9 254.65,238.35C254.43,234.8 253.94,232.3 252.88,230.79C251.86,229.36 250.16,228.79 247.51,228.94C244.83,229.13 243.24,229.92 242.41,231.51C241.5,233.18 241.35,235.71 241.58,239.22C241.8,242.7 242.26,245.19 243.35,246.71V246.63ZM282.96,224.71L282.93,223.8L293.05,223.35L293.13,224.63L292.87,224.86C292.68,225.01 292.3,225.5 292.04,226.67C291.85,227.51 291.73,228.64 291.81,230.15L292.11,236.5C292.34,241.34 291.43,244.78 289.5,247.12C287.54,249.46 284.59,250.6 280.7,250.79C276.8,250.98 273.78,250.11 271.63,247.95C269.51,245.84 268.3,242.47 268.07,237.63L267.77,231.29C267.69,229.36 267.35,228.11 267.01,227.32C266.67,226.6 266.33,226.26 266.14,226.07L265.92,225.88L265.84,224.67L275.86,224.22L275.93,225.5L275.67,225.73C275.48,225.88 275.1,226.37 274.84,227.54C274.65,228.38 274.54,229.51 274.61,231.02L274.91,237.37C275.03,239.86 275.14,242.4 275.9,244.21C276.58,245.87 277.9,246.97 280.43,246.86C282.96,246.74 284.17,245.53 284.78,243.79C285.38,241.9 285.31,239.37 285.19,236.88L284.89,230.53C284.82,228.6 284.48,227.35 284.14,226.56C283.83,225.84 283.45,225.5 283.27,225.31L283.04,225.12V224.82L282.96,224.71ZM296.91,228.04L296.76,223.05L319.47,222.44L319.63,228.15L318.42,228.19L318.19,228C318,227.81 317.62,227.51 316.87,227.24C316.04,226.94 314.79,226.71 312.86,226.79L311.54,226.82L311.95,242.43C311.99,244.32 312.29,245.53 312.63,246.33C312.93,247.05 313.28,247.39 313.46,247.57L313.65,247.76L313.69,248.97L303.9,249.24L303.86,248.03L304.05,247.8C304.24,247.61 304.55,247.24 304.81,246.52C305.11,245.72 305.34,244.48 305.26,242.59L304.85,226.98L303.52,227.01C302.01,227.05 300.88,227.24 300.08,227.51C298.95,227.85 298.5,228.26 298.35,228.49L298.16,228.75L296.87,228.79V228.07L296.91,228.04ZM349.37,222.97V223.54L349.11,223.76C348.92,223.91 348.5,224.41 348.2,225.54C347.97,226.37 347.82,227.47 347.86,228.98L347.97,241.68C347.97,243.61 348.27,244.85 348.58,245.68C348.88,246.44 349.22,246.78 349.41,246.97L349.6,247.16V248.37L339.81,248.44V247.2L340.07,246.97C340.26,246.82 340.68,246.33 340.98,245.19C341.21,244.36 341.36,243.27 341.32,241.75L341.28,237.14L331.91,237.22L331.95,241.87C331.95,243.79 332.25,245.04 332.55,245.87C332.85,246.63 333.19,246.97 333.38,247.16L333.57,247.35V248.56L323.78,248.63V247.35L324.05,247.12C324.24,246.97 324.65,246.48 324.95,245.35C325.18,244.51 325.33,243.42 325.29,241.87L325.18,229.17C325.18,227.24 324.88,225.99 324.58,225.16C324.27,224.41 323.93,224.07 323.74,223.88L323.56,223.69V222.48L333.35,222.4V223.69L333.08,223.91C332.89,224.07 332.48,224.56 332.17,225.69C331.95,226.52 331.8,227.62 331.83,229.17L331.87,233.21L341.24,233.14L341.21,229.05C341.21,227.13 340.9,225.88 340.6,225.05C340.3,224.29 339.96,223.95 339.77,223.76L339.58,223.57V222.37L349.37,222.29V223.01V222.97ZM389.66,224.14L381.16,232.91L390.61,247.5L390.57,248.75L381.8,248.63V247.35L382.06,247.16C382.1,247.12 382.06,246.86 381.72,246.06C381.38,245.19 380.74,243.98 379.61,242.28L376.62,237.63L375.75,238.5L375.71,241.72C375.68,243.64 375.94,244.93 376.24,245.72C376.51,246.48 376.85,246.82 377.04,247.01L377.23,247.2V248.41L367.44,248.26L367.47,246.97L367.74,246.78C367.93,246.63 368.34,246.18 368.68,245.01C368.91,244.21 369.1,243.08 369.14,241.57L369.33,228.87C369.36,226.94 369.1,225.65 368.8,224.86C368.53,224.1 368.19,223.76 368,223.57L367.81,223.39L367.85,222.18L377.64,222.33V223.61L377.38,223.8C377.15,223.95 376.77,224.41 376.43,225.54C376.2,226.33 376.02,227.47 375.98,228.98L375.9,233.82L381.72,227.88C382.14,227.43 385.35,223.95 385.2,223.8L385.01,223.61L385.05,222.4L389.96,222.48L389.92,223.91L389.73,224.1L389.66,224.14ZM407.39,222.37H407.42C411.85,222.52 415.17,223.95 417.4,226.33C419.74,228.87 420.84,232.42 420.73,236.58C420.58,240.73 419.29,244.02 417.06,246.29C414.79,248.6 411.54,249.84 407.58,249.88C406.89,249.88 406.14,249.84 405.46,249.8C401.45,249.43 398.32,247.99 396.2,245.53C394.12,243.15 393.1,239.83 393.21,235.67V235.63C393.36,231.59 394.61,228.22 396.99,225.84C399.37,223.5 402.85,222.18 407.39,222.33V222.37ZM401.45,243.49C402.32,245.01 403.95,245.76 406.63,245.84C409.35,245.91 411.01,245.31 412,243.87C413.02,242.36 413.39,239.86 413.51,236.31C413.62,232.76 413.39,230.23 412.45,228.6C411.58,227.09 409.96,226.33 407.27,226.26C404.59,226.18 402.93,226.82 401.94,228.3C400.89,229.85 400.51,232.38 400.39,235.9C400.28,239.41 400.51,241.9 401.45,243.49ZM447.07,238.35C446.05,239.6 444.69,240.36 443.33,240.81L448.73,249.8L448.66,251.05L440.68,250.64L440.76,249.43L440.99,249.24C441.02,249.2 441.02,248.97 440.87,248.41C440.61,247.57 440,246.25 438.79,244.17L437.09,241.34L433.62,241.15L433.5,243.49C433.39,245.42 433.62,246.71 433.88,247.54C434.14,248.29 434.45,248.67 434.64,248.86L434.83,249.09L434.75,250.3L424.96,249.8L425.04,248.52L425.34,248.33C425.57,248.18 425.98,247.76 426.36,246.59C426.62,245.8 426.85,244.66 426.93,243.15L427.57,230.45C427.68,228.53 427.45,227.24 427.19,226.41C426.93,225.65 426.62,225.27 426.43,225.09L426.25,224.86L426.32,223.65C430.21,223.84 434.14,224.1 438,224.26C440.04,224.37 449.34,224.86 448.92,233.25C448.81,235.44 448.13,237.07 447.11,238.24L447.07,238.35ZM433.69,237.22L437.32,237.41C437.32,237.41 442.01,237.86 442.27,233.02C442.5,228.64 437.81,228.49 437.81,228.49L434.18,228.3L433.73,237.22H433.69ZM472.39,231.17C471.6,230.79 470.39,230.45 468.46,230.3L462.61,229.89L462.15,236.54L471.07,237.18L470.81,241.19L461.89,240.54L461.39,247.76L467.25,248.18C469.18,248.33 470.47,248.14 471.3,247.88C472.05,247.65 472.43,247.35 472.66,247.16L472.89,246.97L474.09,247.05L473.68,252.75L453.04,251.32L453.12,250.03L453.42,249.84C453.65,249.69 454.06,249.27 454.48,248.14C454.74,247.35 455.01,246.25 455.12,244.74L455.99,232.08C456.14,230.15 455.95,228.87 455.69,228.04C455.46,227.28 455.16,226.9 454.97,226.67L454.78,226.45L454.86,225.24L475.49,226.67L475.08,232.38L473.87,232.3L473.68,232.08C473.49,231.89 473.19,231.51 472.43,231.17H472.39ZM502.4,255.06L495.03,254.45L495.15,253.09L495.45,252.9C495.56,252.83 495.71,252.49 495.68,251.54C495.64,250.79 495.49,249.73 495.07,248.33L482.67,247.31C481.99,248.75 481.62,249.77 481.46,250.52C481.28,251.43 481.35,251.77 481.46,251.85L481.73,252.07L481.62,253.36L476.59,252.94L486.3,233.89C487.21,232 487.63,230.76 487.74,229.96C487.81,229.36 487.74,229.09 487.66,228.94L487.47,228.71L487.55,227.51L496.85,228.26L496.77,229.36L496.55,229.55C496.43,229.66 496.32,229.89 496.28,230.53C496.28,231.36 496.47,232.65 497.07,234.65L503.39,255.13L502.36,255.06H502.4ZM490.04,232.91L484.71,243.42L493.6,244.13L490.04,232.87V232.91Z" id="path_13"/></svg>