<svg id="vector" xmlns="http://www.w3.org/2000/svg" width="140" height="40" viewBox="0 0 644 187">
    <path fill="#931111"
          d="M593.8,125.62V30.72C593.8,21.76 592.71,12.01 591.16,3.16H643.85V21.34C632.47,19.3 622.15,18.7 610.66,18.7V70.33C619.32,70.29 628.99,69.04 637.53,67.45V88.47C628.92,87.03 619.39,85.9 610.66,85.82V139.83C622.87,143.5 632.51,141.72 643.85,139.76V161.15L591.16,153.06C592.75,144.22 593.8,134.46 593.8,125.51V125.62Z"
          id="path_0"/>
    <path fill="#931111"
          d="M555.14,149.51C537.45,149.51 527.06,135.41 527.06,118.63V96.86H545.73C544.82,100.07 544.22,102.38 543.91,105.74V118.59C543.91,122.86 545.01,126.6 547.16,129.78C549.17,132.73 551.78,134.12 555.37,134.12C558.66,134.12 561.11,132.91 562.85,130.12C566.36,124.52 566.03,113.64 565.04,107.36C562.66,91.98 545.54,73.2 536.17,58.38C530.76,50.45 526.87,41.22 526.87,31.47C526.87,13.48 537.3,0.4 555.52,0.4C567.99,0.4 576.8,8.04 580.39,19.87C581.56,23.72 582.13,28.03 582.13,32.8V47.65H563.46C564.36,44.44 564.97,42.13 565.27,38.77V32.8C565.27,25.69 563.42,16.13 554.57,16.13C545.96,16.13 543.69,24.33 543.69,31.47C543.69,37.86 546.41,43.34 549.89,49.12C560.21,65.9 578.65,86.73 581.6,104.87C584.89,124.98 579.82,149.51 555.14,149.51Z"
          id="path_1"/>
    <path fill="#931111"
          d="M486.88,143.27C478.49,143.27 471.58,139.91 466.28,133.41C460.54,126.38 458.42,117.76 458.42,108.8V30.72C458.42,26.79 458.08,22.78 457.78,18.85C457.33,13.52 456.68,8.42 455.78,3.16H477.92C476.98,8.3 476.3,13.25 475.81,18.51C475.43,22.51 475.09,26.67 475.09,30.72V108.99C475.09,115 476.3,119.65 478.68,122.9C480.8,125.77 483.44,127.51 487.11,127.51C490.66,127.51 493.31,126 495.27,123.09C497.92,119.16 498.52,113.64 498.52,108.99V30.72C498.52,26.71 498.22,22.67 497.88,18.66C497.46,13.44 496.9,8.34 496.14,3.16H518.33C517.12,8.34 516.44,12.88 515.98,18.21C515.64,22.36 515.34,26.56 515.34,30.72V108.8C515.34,118.74 512.73,126.94 507.48,133.41C502.19,139.91 495.23,143.27 486.88,143.27Z"
          id="path_2"/>
    <path fill="#931111"
          d="M418.25,139.49C410.08,139.49 402.83,135.9 397.65,129.66C391.94,122.79 389.6,113.83 389.6,105.02V34.61C389.6,17.34 398.86,0.18 418.25,0.18C437.79,0.18 446.7,17.3 446.7,34.61V105.02C446.7,113.98 444.59,122.56 438.84,129.63C433.55,136.13 426.64,139.49 418.25,139.49ZM406.42,104.3C406.42,109.22 407.1,114.77 409.89,118.97C411.97,122.11 414.65,123.77 418.43,123.77C421.87,123.77 424.6,122.22 426.6,119.08C429.28,114.89 429.89,109.14 429.89,104.3V34.46C429.89,29.73 429.24,24.29 426.52,20.28C424.52,17.3 421.87,15.75 418.25,15.75C414.58,15.75 411.93,17.34 409.86,20.32C407.1,24.29 406.42,29.73 406.42,34.46V104.3Z"
          id="path_3"/>
    <path fill="#931111"
          d="M358.42,126.15C359.17,119.95 359.78,113.15 359.78,106.91V77.05H336.53V106.84C336.53,113.07 337.21,120.1 338.08,126.26C338.5,129.06 339.07,131.67 339.71,134.39H317.22C317.71,131.59 318.16,128.87 318.5,126.07C319.26,119.88 319.86,113.07 319.86,106.84V30.72C319.86,24.48 319.26,17.68 318.5,11.48C318.16,8.68 317.71,5.96 317.22,3.16H339.71C339.07,5.88 338.5,8.49 338.08,11.29C337.21,17.45 336.53,24.48 336.53,30.72V61.52H359.78V30.72C359.78,24.48 359.17,17.68 358.42,11.48C358.08,8.68 357.62,5.96 357.13,3.16H379.62C378.98,5.88 378.41,8.45 378.03,11.21C377.16,17.41 376.63,24.44 376.63,30.68V106.87C376.63,113.11 377.31,120.75 378.14,126.94C378.52,129.7 379.09,132.31 379.73,135.03L357.13,134.43C357.62,131.67 358.08,128.95 358.42,126.11V126.15Z"
          id="path_4"/>
    <path fill="#931111"
          d="M244.31,107.52V18.74C235.43,18.77 225.83,19.83 217.1,21.38V3.2H288.42V21.38C279.65,19.83 270.09,18.77 261.21,18.74V107.52C261.21,116.63 262.15,126.19 264.19,135.07L241.63,135.75C243.14,126.98 244.39,116.44 244.39,107.52H244.31Z"
          id="path_5"/>
    <path fill="#931111"
          d="M166.38,117L186.37,3.2H202.17L222.28,114.36C223.56,121.76 225.75,128.95 227.91,136.13L205.61,137.45C206.44,130.72 206.67,124.83 206.18,118.02C206.06,116.51 205.53,111.98 205.35,110.46L183.42,112.43C183.27,113.94 183.01,117.87 182.89,119.38C182.4,126.3 182.63,132.01 183.46,138.81L161.31,140.32C163.51,133.1 165.09,124.52 166.34,117.04L166.38,117ZM203.61,98.33L194.31,44.44L185.96,99.84L203.57,98.33H203.61Z"
          id="path_6"/>
    <path fill="#931111"
          d="M103.3,118.82V30.75C103.3,21.8 102.2,12.05 100.65,3.2H153.34V21.38C141.96,19.34 131.64,18.74 120.15,18.74V64.73C128.81,64.69 138.49,63.45 147.03,61.86V82.87C138.41,81.44 128.88,80.3 120.15,80.23V128.68C131.72,128.68 143.51,124.71 153.34,120.59V140.55L100.65,146.29C102.24,137.45 103.3,127.7 103.3,118.74V118.82Z"
          id="path_7"/>
    <path fill="#931111"
          d="M37.91,153.1L20.37,61.1V130.42C20.37,139.3 21.62,149.21 23.25,157.97L0.91,161.79C2.5,152.95 3.56,143.2 3.56,134.24V30.72C3.56,21.76 2.46,12.01 0.91,3.16H22.19L46.38,106.35L70.23,3.16H91.32C89.69,12.27 88.48,21.46 88.48,30.72V120.37C88.48,129.21 89.77,139.11 91.32,147.92L68.83,150.57C70.87,141.72 71.81,132.12 71.81,123.01V61.1L54.28,149.51L55.68,152.34L36.51,155.93L37.91,153.1Z"
          id="path_8"/>
    <path fill="#931111"
          d="M192.84,170.49C195.29,171.51 197.22,173.1 197.67,175.7C197.9,176.84 198.24,179.22 196.88,181.41C195.56,183.57 192.65,185.57 186.41,186.02C182.48,186.36 179.53,185.3 177.49,183.75C175.41,182.21 174.32,180.13 174.16,178.46V177.74L181.04,177.18L181.16,178.43L180.93,178.65C180.93,178.65 180.55,179.22 181.84,180.54C182.4,181.07 183.05,181.45 183.8,181.71C184.52,181.98 185.31,182.05 186.11,182.02C187.88,181.86 189.24,181.34 190.11,180.62C190.91,179.94 191.32,179.03 191.25,178.09C191.21,177.48 190.87,176.57 189.66,175.78C188.75,175.21 187.35,174.72 185.28,174.49C182.33,174.15 179.68,173.81 177.64,172.91C175.45,171.92 174.01,170.34 173.79,167.5C173.79,167.39 172.61,159.6 184.67,158.58C188.83,158.24 191.66,159.26 193.51,160.62C195.44,162.06 196.27,163.91 196.39,165.12L196.43,165.8L189.51,166.37L189.43,165.24L189.66,165.01C189.66,165.01 189.96,164.52 188.6,163.42C188.26,163.16 187.77,162.97 187.16,162.82C186.52,162.66 185.8,162.59 184.97,162.63H184.67C183.84,162.7 182.67,162.97 181.68,163.53C180.82,164.02 180.13,164.74 180.13,165.65V165.84C180.21,166.86 180.7,167.5 181.5,167.88C182.37,168.33 183.61,168.56 185.05,168.71C187.62,168.98 190.49,169.39 192.84,170.38V170.49ZM215.29,156.32C219.67,156.05 223.11,157.15 225.53,159.3C228.13,161.57 229.57,165.01 229.8,169.16C230.06,173.32 229.08,176.72 227.08,179.18C225.04,181.71 221.94,183.26 218.01,183.68C217.36,183.72 216.53,183.83 215.89,183.83C211.88,183.83 208.6,182.7 206.29,180.47C203.98,178.27 202.62,175.06 202.36,170.9V170.87C202.09,166.86 203.04,163.38 205.16,160.81C207.31,158.24 210.64,156.62 215.17,156.32H215.21H215.29ZM211.35,177.9C212.38,179.29 214.08,179.9 216.72,179.75C219.44,179.56 221.03,178.8 221.86,177.29C222.73,175.67 222.88,173.17 222.65,169.62C222.43,166.07 221.94,163.57 220.88,162.06C219.86,160.62 218.16,160.06 215.51,160.21C212.83,160.4 211.24,161.19 210.41,162.78C209.5,164.44 209.35,166.97 209.58,170.49C209.8,173.96 210.26,176.46 211.35,177.97V177.9ZM250.96,155.98L250.93,155.07L261.05,154.61L261.13,155.9L260.87,156.13C260.68,156.28 260.3,156.77 260.04,157.94C259.85,158.77 259.73,159.9 259.81,161.42L260.11,167.77C260.34,172.6 259.43,176.04 257.5,178.39C255.54,180.73 252.59,181.86 248.7,182.05C244.8,182.24 241.78,181.37 239.63,179.22C237.51,177.1 236.3,173.74 236.07,168.9L235.77,162.55C235.69,160.62 235.35,159.38 235.01,158.58C234.67,157.86 234.33,157.52 234.15,157.34L233.92,157.15L233.84,155.94L243.86,155.48L243.93,156.77L243.67,156.99C243.48,157.15 243.1,157.64 242.84,158.81C242.65,159.64 242.54,160.77 242.61,162.29L242.91,168.64C243.03,171.13 243.14,173.66 243.9,175.48C244.58,177.14 245.9,178.24 248.43,178.12C250.96,178.01 252.17,176.8 252.78,175.06C253.38,173.17 253.31,170.64 253.19,168.15L252.89,161.79C252.82,159.87 252.48,158.62 252.13,157.83C251.83,157.11 251.46,156.77 251.27,156.58L251.04,156.39V156.09L250.96,155.98ZM264.91,159.3L264.76,154.31L287.47,153.71L287.63,159.41L286.42,159.45L286.19,159.26C286,159.07 285.62,158.77 284.87,158.51C284.04,158.21 282.79,157.98 280.86,158.05L279.54,158.09L279.95,173.7C279.99,175.59 280.29,176.8 280.63,177.59C280.93,178.31 281.28,178.65 281.46,178.84L281.65,179.03L281.69,180.24L271.9,180.5L271.86,179.29L272.05,179.07C272.24,178.88 272.55,178.5 272.81,177.78C273.11,176.99 273.34,175.74 273.26,173.85L272.85,158.24L271.52,158.28C270.01,158.32 268.88,158.51 268.08,158.77C266.95,159.11 266.5,159.53 266.35,159.75L266.16,160.02L264.87,160.06V159.34L264.91,159.3ZM317.37,154.24V154.8L317.11,155.03C316.92,155.18 316.5,155.67 316.2,156.81C315.97,157.64 315.82,158.73 315.86,160.25L315.97,172.95C315.97,174.87 316.27,176.12 316.58,176.95C316.88,177.71 317.22,178.05 317.41,178.24L317.6,178.43V179.63L307.81,179.71V178.46L308.07,178.24C308.26,178.09 308.68,177.59 308.98,176.46C309.21,175.63 309.36,174.53 309.32,173.02L309.28,168.41L299.91,168.49L299.95,173.13C299.95,175.06 300.25,176.31 300.55,177.14C300.85,177.9 301.19,178.24 301.38,178.43L301.57,178.61V179.82L291.78,179.9V178.61L292.05,178.39C292.24,178.24 292.65,177.74 292.95,176.61C293.18,175.78 293.33,174.68 293.29,173.13L293.18,160.43C293.18,158.51 292.88,157.26 292.58,156.43C292.27,155.67 291.93,155.33 291.74,155.14L291.56,154.95V153.74L301.35,153.67V154.95L301.08,155.18C300.89,155.33 300.48,155.82 300.17,156.96C299.95,157.79 299.8,158.88 299.83,160.43L299.87,164.48L309.24,164.4L309.21,160.32C309.21,158.39 308.9,157.15 308.6,156.32C308.3,155.56 307.96,155.22 307.77,155.03L307.58,154.84V153.63L317.37,153.56V154.27V154.24ZM357.66,155.41L349.16,164.18L358.61,178.76L358.57,180.01L349.8,179.9V178.61L350.06,178.43C350.1,178.39 350.06,178.12 349.72,177.33C349.38,176.46 348.74,175.25 347.61,173.55L344.62,168.9L343.75,169.77L343.71,172.98C343.68,174.91 343.94,176.2 344.24,176.99C344.51,177.74 344.85,178.09 345.04,178.27L345.23,178.46V179.67L335.44,179.52L335.47,178.24L335.74,178.05C335.93,177.9 336.34,177.44 336.68,176.27C336.91,175.48 337.1,174.34 337.14,172.83L337.33,160.13C337.36,158.21 337.1,156.92 336.8,156.13C336.53,155.37 336.19,155.03 336,154.84L335.81,154.65L335.85,153.44L345.64,153.59V154.88L345.38,155.07C345.15,155.22 344.77,155.67 344.43,156.81C344.2,157.6 344.02,158.73 343.98,160.25L343.9,165.08L349.72,159.15C350.14,158.7 353.35,155.22 353.2,155.07L353.01,154.88L353.05,153.67L357.96,153.74L357.92,155.18L357.73,155.37L357.66,155.41ZM375.39,153.63H375.42C379.85,153.78 383.17,155.22 385.4,157.6C387.74,160.13 388.84,163.68 388.73,167.84C388.58,172 387.29,175.29 385.06,177.56C382.79,179.86 379.54,181.11 375.58,181.15C374.89,181.15 374.14,181.11 373.46,181.07C369.45,180.69 366.32,179.26 364.2,176.8C362.12,174.42 361.1,171.09 361.21,166.93V166.9C361.36,162.85 362.61,159.49 364.99,157.11C367.37,154.76 370.85,153.44 375.39,153.59V153.63ZM369.45,174.76C370.32,176.27 371.95,177.03 374.63,177.1C377.35,177.18 379.01,176.57 380,175.14C381.02,173.63 381.39,171.13 381.51,167.58C381.62,164.02 381.39,161.49 380.45,159.87C379.58,158.36 377.96,157.6 375.27,157.52C372.59,157.45 370.93,158.09 369.94,159.57C368.89,161.12 368.51,163.65 368.39,167.16C368.28,170.68 368.51,173.17 369.45,174.76ZM415.07,169.62C414.05,170.87 412.69,171.62 411.33,172.07L416.73,181.07L416.66,182.32L408.68,181.9L408.76,180.69L408.99,180.5C409.02,180.47 409.02,180.24 408.87,179.67C408.61,178.84 408,177.52 406.79,175.44L405.09,172.6L401.62,172.42L401.5,174.76C401.39,176.69 401.62,177.97 401.88,178.8C402.14,179.56 402.45,179.94 402.64,180.13L402.83,180.35L402.75,181.56L392.96,181.07L393.04,179.79L393.34,179.6C393.57,179.45 393.98,179.03 394.36,177.86C394.62,177.06 394.85,175.93 394.93,174.42L395.57,161.72C395.68,159.79 395.45,158.51 395.19,157.68C394.93,156.92 394.62,156.54 394.43,156.35L394.25,156.13L394.32,154.92C398.21,155.1 402.14,155.37 406,155.52C408.04,155.63 417.34,156.13 416.92,164.52C416.81,166.71 416.13,168.33 415.11,169.51L415.07,169.62ZM401.69,168.49L405.32,168.67C405.32,168.67 410.01,169.13 410.27,164.29C410.5,159.9 405.81,159.75 405.81,159.75L402.18,159.57L401.73,168.49H401.69ZM440.39,162.44C439.6,162.06 438.39,161.72 436.46,161.57L430.61,161.15L430.15,167.8L439.07,168.45L438.81,172.45L429.89,171.81L429.39,179.03L435.25,179.45C437.18,179.6 438.47,179.41 439.3,179.14C440.05,178.92 440.43,178.61 440.66,178.43L440.89,178.24L442.09,178.31L441.68,184.02L421.04,182.58L421.12,181.3L421.42,181.11C421.65,180.96 422.06,180.54 422.48,179.41C422.74,178.61 423.01,177.52 423.12,176.01L423.99,163.35C424.14,161.42 423.95,160.13 423.69,159.3C423.46,158.54 423.16,158.17 422.97,157.94L422.78,157.71L422.86,156.5L443.49,157.94L443.08,163.65L441.87,163.57L441.68,163.35C441.49,163.16 441.19,162.78 440.43,162.44H440.39ZM470.4,186.32L463.03,185.72L463.15,184.36L463.45,184.17C463.56,184.09 463.71,183.75 463.68,182.81C463.64,182.05 463.49,180.99 463.07,179.6L450.67,178.58C449.99,180.01 449.62,181.03 449.46,181.79C449.28,182.7 449.35,183.04 449.46,183.11L449.73,183.34L449.62,184.62L444.59,184.21L454.3,165.16C455.21,163.27 455.63,162.02 455.74,161.23C455.81,160.62 455.74,160.36 455.66,160.21L455.47,159.98L455.55,158.77L464.85,159.53L464.77,160.62L464.55,160.81C464.43,160.93 464.32,161.15 464.28,161.79C464.28,162.63 464.47,163.91 465.07,165.91L471.39,186.4L470.36,186.32H470.4ZM458.04,164.18L452.71,174.68L461.6,175.4L458.04,164.14V164.18Z"
          id="path_9"/>
</svg>
